<?xml version="1.0" ?><!DOCTYPE svg  PUBLIC '-//W3C//DTD SVG 1.1//EN'  'http://www.w3.org/Graphics/SVG/1.1/DTD/svg11.dtd'><svg enable-background="new 0 0 512 512" height="512px" id="Layer_1" version="1.1" viewBox="0 0 512 512" width="512px" xml:space="preserve" xmlns="http://www.w3.org/2000/svg" xmlns:xlink="http://www.w3.org/1999/xlink"><g><path d="M510.689,478.854c0,17.561-14.275,31.836-31.836,31.836H33.146c-17.56,0-31.836-14.275-31.836-31.836   V33.146c0-17.56,14.276-31.836,31.836-31.836h445.707c17.561,0,31.836,14.276,31.836,31.836V478.854z" fill="#F0F4FA"/></g><g><path d="M201.742,259.778c-5.062,11.906-5.887,23.287-1.818,25.387c2.794,1.481,7.182-1.855,11.287-7.969   c1.632,6.656,5.663,12.693,11.42,17.531c-6.038,2.231-9.976,5.869-9.976,9.994c0,6.769,10.669,12.262,23.831,12.262   c11.869,0,21.693-4.462,23.513-10.312c0.487-0.018,2.362-0.018,2.831,0c1.818,5.851,11.663,10.312,23.532,10.312   c13.162,0,23.83-5.493,23.83-12.262c0-4.125-3.938-7.763-9.975-9.994c5.738-4.838,9.787-10.875,11.4-17.531   c4.105,6.113,8.494,9.45,11.287,7.969c4.068-2.1,3.263-13.48-1.8-25.387c-3.976-9.359-9.375-16.257-13.5-17.781   c0.075-0.582,0.094-1.201,0.094-1.801c0-3.619-1.013-6.953-2.719-9.668c0.019-0.207,0.019-0.436,0.019-0.641   c0-1.672-0.394-3.226-1.068-4.576c-1.031-24.34-16.875-43.649-42.507-43.649c-25.65,0-41.494,19.31-42.525,43.649   c-0.693,1.351-1.087,2.904-1.087,4.576c0,0.205,0.019,0.434,0.019,0.641c-1.688,2.715-2.699,6.049-2.699,9.668   c0,0.6,0.018,1.2,0.074,1.801C211.117,243.521,205.699,250.419,201.742,259.778L201.742,259.778z M201.742,259.778" fill="#2A8AB8"/><polyline fill="none" points="78.594,433.602 78.594,78.398 433.406,78.398 433.406,433.602  "/><path d="M303.994,87.586c-17.746-4.98-32.688,6.212-37.65,23.829c-4.941,17.617,1.971,34.965,19.717,39.946   c17.738,5.007,130.209,43.998,134.229,171.52c2.254-5.646,4.215-11.459,5.902-17.439   C452.604,211.528,397.886,114.001,303.994,87.586L303.994,87.586z" fill="#4BAB48"/><path d="M386.508,334.62c-12.58-13.277-31.012-16.259-44.406-3.568c-13.408,12.669-104.58,89.188-216.101,27.209   c3.693,4.82,7.683,9.492,11.936,14.005c67.048,70.854,178.827,73.948,249.681,6.901C401.029,366.48,399.066,347.91,386.508,334.62   L386.508,334.62z" fill="#ED1C24"/><path d="M154.675,288.076c-4.006-17.989-22.916-135.52,87.483-199.456c-6.025,0.708-12.078,1.708-18.133,3.075   C128.81,112.897,68.811,207.269,90.013,302.483c4.023,17.994,20.96,25.869,38.811,21.89   C146.673,320.395,158.676,306.085,154.675,288.076L154.675,288.076z" fill="#FEDE0D"/></g></svg>